# xmcd CD database file generated by LOLA_Freedb v0.9beta0
# 
# Track frame offsets:
#      183
#      11993
#      31698
# 
# Disc length: 635 seconds
# 
# Revision: 0 
# Processed by: cddbd v1.5.2PL0 Copyright (c) Steve Scherf et al.
# Submitted via: LOLA_Freedb v0.9beta0
# 
DISCID=19027903
DTITLE=Wagoneers, The - I Wanna Know Her Again
DYEAR=1900
DGENRE=
TTITLE0=Wagoneers, The - I Wanna Know Her Again
TTITLE1=Wagoneers, The - Stout And High
TTITLE2=Wagoneers, The - All Nite
EXTD=CD-Single
EXTT0=
EXTT1=
EXTT2=
PLAYORDER=
